<svg width="30" height="30" viewBox="0 0 30 30" fill="none" xmlns="http://www.w3.org/2000/svg">
  <path d="M22.7 15.5c0-3.2 2.6-4.7 2.7-4.8-1.5-2.1-3.8-2.4-4.6-2.5-2-.2-3.8 1.1-4.8 1.1-1 0-2.5-1.1-4.1-1.1-2.1 0-4.1 1.2-5.2 3.1-2.2 3.8-.6 9.5 1.6 12.6 1.1 1.5 2.3 3.2 4 3.2 1.6-.1 2.2-1 4.1-1 1.9 0 2.5 1 4.2 1 1.7 0 2.8-1.5 3.9-3.1.8-1.2 1.5-2.5 1.5-2.5-.1-.1-2.9-1.1-2.9-4.3" fill="currentColor"/>
  <path d="M19.8 8.2c.9-1.1 1.5-2.5 1.3-4-1.3.1-2.8.8-3.7 1.9-.8.9-1.5 2.4-1.3 3.8 1.4.1 2.8-.7 3.7-1.7" fill="currentColor"/>
</svg>

