<?xml version="1.0" encoding="UTF-8"?>
<svg xmlns="http://www.w3.org/2000/svg" viewBox="0 0 24 24" width="24" height="24">
  <style>
    path { fill: #000000; }
    @media (prefers-color-scheme: dark) {
      path { fill: #FFFFFF; }
    }
  </style>
  <path d="M17.05 20.28c-.98 1.37-2.03 1.22-3.05.62-1.06-.62-2.03-.62-3.15 0-1.37.82-2.29.6-3.18-.62C3.2 14.87 4.05 7.37 9.36 7c1.23.07 2.09.69 2.85.69.77 0 2.21-.85 3.73-.73.63.03 2.41.25 3.55 1.92-.09.06-2.12 1.24-2.1 3.71.03 2.94 2.59 3.92 2.61 3.93-.03.06-.42 1.44-1.37 2.85-.82 1.22-1.73 2.4-3.07 2.4-.67.01-1.18-.18-1.73-.39-.6-.22-1.22-.45-2.17-.45-.88 0-1.48.22-2.05.43-.52.19-1.02.37-1.73.4-1.27.02-2.24-1.18-3.13-2.38zm-3.34-14.73c-.65.77-1.7 1.37-2.73 1.29-.13-1.02.37-2.09 1-2.77.71-.77 1.96-1.37 2.89-1.4.13 1.05-.31 2.11-.99 2.88h-.17z"/>
</svg> 