<?xml version="1.0" encoding="UTF-8"?>
<svg version="1.1" xmlns="http://www.w3.org/2000/svg" width="500" height="500">
<path d="M0 0 C4.98539445 2.92641701 8.1369538 6.78212362 10.04296875 12.19921875 C10.82525502 18.41934859 10.54063809 23.92024102 7.4609375 29.45703125 C5.80479511 31.49185082 4.09178133 32.52967449 1.85546875 33.88671875 C-1.22246624 35.92535102 -1.86268713 36.78240741 -2.6953125 40.4609375 C-2.931858 43.72667757 -3.03471574 46.92675941 -2.95703125 50.19921875 C-1.67828125 50.30234375 -0.39953125 50.40546875 0.91796875 50.51171875 C11.32090345 51.71832873 20.9733438 55.03629388 27.85546875 63.32421875 C28.57734375 64.27296875 29.29921875 65.22171875 30.04296875 66.19921875 C33.66820344 70.77700236 38.42225404 72.17287375 43.73046875 74.13671875 C52.94117246 77.57952111 61.12261427 81.76748305 69.29296875 87.26171875 C70.2675 87.91269531 71.24203125 88.56367188 72.24609375 89.234375 C74.94746696 91.13212741 77.56107071 93.02076445 80.04296875 95.19921875 C80.04296875 95.85921875 80.04296875 96.51921875 80.04296875 97.19921875 C80.57921875 97.42609375 81.11546875 97.65296875 81.66796875 97.88671875 C86.22552428 100.40536786 90.28060327 103.74874103 93.04296875 108.19921875 C93.04296875 108.85921875 93.04296875 109.51921875 93.04296875 110.19921875 C94.03296875 110.52921875 95.02296875 110.85921875 96.04296875 111.19921875 C97.63185146 113.1919059 99.06562142 115.15204892 100.48046875 117.26171875 C100.8887793 117.85009521 101.29708984 118.43847168 101.71777344 119.04467773 C103.86486157 122.19740243 105.52279386 125.17534259 106.79296875 128.76171875 C108.10420524 131.69055539 108.90523873 132.14272359 111.95703125 133.39453125 C114.26467903 134.05609167 116.58151521 134.68640037 118.90625 135.28515625 C124.4537011 136.90172357 127.37644806 139.85262831 130.35546875 144.76171875 C132.4185761 148.96434483 133.16070143 152.15891448 133.23583984 156.80908203 C133.25993423 158.17167648 133.25993423 158.17167648 133.28451538 159.5617981 C133.32933482 163.71859722 133.37004808 167.87524172 133.39306641 172.03222656 C133.40958753 174.21625452 133.43682633 176.40022927 133.47509766 178.58398438 C133.53023458 181.75028229 133.55179897 184.91531605 133.56640625 188.08203125 C133.58907562 189.04593781 133.611745 190.00984436 133.63510132 191.00296021 C133.60902194 199.48834163 130.93360748 206.48718883 124.98046875 212.63671875 C121.80165921 215.17418952 118.94904431 215.69909427 114.98046875 216.38671875 C110.46772237 217.34343132 110.46772237 217.34343132 107.21875 220.4375 C106.2439191 222.32573411 105.31998176 224.24088373 104.44140625 226.17578125 C93.22873425 250.4177034 67.08420776 267.7706582 43.0078125 277.1171875 C42.02941406 277.47425781 41.05101562 277.83132813 40.04296875 278.19921875 C38.34333984 278.84310547 38.34333984 278.84310547 36.609375 279.5 C20.98162653 285.10614469 5.99222949 286.48062505 -10.51953125 286.57421875 C-11.25353149 286.58216461 -11.98753174 286.59011047 -12.74377441 286.59829712 C-27.44277743 286.72034438 -41.57526296 284.87740832 -55.51953125 280.01171875 C-56.83848389 279.55889526 -56.83848389 279.55889526 -58.18408203 279.09692383 C-87.77619351 268.623432 -114.27076233 248.37124415 -128.95703125 220.19921875 C-128.95703125 219.20921875 -128.95703125 218.21921875 -128.95703125 217.19921875 C-129.53710938 217.16183594 -130.1171875 217.12445313 -130.71484375 217.0859375 C-139.27963962 216.36513785 -143.81456361 213.79529645 -149.44140625 207.33203125 C-152.20234017 203.4467995 -153.20524301 199.90343515 -153.24755859 195.16870117 C-153.2603183 194.19386276 -153.273078 193.21902435 -153.28622437 192.21464539 C-153.28845001 191.17185928 -153.29067566 190.12907318 -153.29296875 189.0546875 C-153.29962555 187.97093338 -153.30628235 186.88717926 -153.31314087 185.77058411 C-153.32325407 183.48012994 -153.3279583 181.18964639 -153.32763672 178.89916992 C-153.33200275 175.40949464 -153.36831851 171.92109171 -153.40625 168.43164062 C-153.41211996 166.20182722 -153.41608815 163.97200784 -153.41796875 161.7421875 C-153.4395253 160.18711739 -153.4395253 160.18711739 -153.46151733 158.60063171 C-153.41544312 151.23045381 -152.21782965 145.83167805 -147.140625 140.17578125 C-146.56441406 139.72976562 -145.98820312 139.28375 -145.39453125 138.82421875 C-144.52634766 138.13199219 -144.52634766 138.13199219 -143.640625 137.42578125 C-140.42576751 135.08363449 -138.72858396 134.15836321 -134.83203125 134.01171875 C-131.05538888 133.24420756 -130.07502294 132.3603067 -127.75390625 129.19140625 C-126.61933924 127.27056386 -125.54711152 125.32272758 -124.47851562 123.36450195 C-119.0304533 113.44107754 -111.29240236 104.82519657 -102.95703125 97.19921875 C-102.29703125 97.19921875 -101.63703125 97.19921875 -100.95703125 97.19921875 C-100.95703125 96.53921875 -100.95703125 95.87921875 -100.95703125 95.19921875 C-98.9502125 93.55838518 -96.95277822 92.05593177 -94.83203125 90.57421875 C-94.19531494 90.12836426 -93.55859863 89.68250977 -92.90258789 89.22314453 C-82.13480471 81.78802542 -71.63964698 76.25470683 -59.15209961 72.33935547 C-53.36828691 70.36317881 -50.8469779 68.45740234 -47.97583008 63.04492188 C-44.58162434 56.89582161 -36.04633567 54.08722703 -29.75390625 51.9453125 C-25.52195985 50.81639942 -21.32374629 50.38866409 -16.95703125 50.19921875 C-16.49733488 42.17783654 -16.49733488 42.17783654 -19.6640625 35.2109375 C-21.06211464 34.24864187 -22.49179282 33.33069168 -23.94921875 32.4609375 C-27.43538793 30.27021251 -29.24741882 27.0323842 -30.70703125 23.26171875 C-31.55457315 16.26949809 -30.93776579 10.20966158 -26.66796875 4.46484375 C-19.05190896 -3.76212992 -9.73627735 -4.77597082 0 0 Z M-84.95703125 145.19921875 C-93.50626801 155.05368249 -97.43954799 165.6322393 -97.29296875 178.58984375 C-96.17928701 190.55544753 -90.6199844 200.45491197 -81.60546875 208.2265625 C-72.66261455 214.94080065 -63.35743353 217.81407653 -52.24414062 217.71679688 C-51.23607864 217.72380615 -50.22801666 217.73081543 -49.18940735 217.73803711 C-45.8929094 217.75548712 -42.59728628 217.74404036 -39.30078125 217.73046875 C-36.98872718 217.73316739 -34.67667423 217.73705289 -32.36462402 217.74206543 C-27.53317393 217.74794292 -22.70202087 217.73945379 -17.87060547 217.72070312 C-11.70064394 217.69791509 -5.5313786 217.71104753 0.63855743 217.73499298 C5.40860163 217.74949814 10.1784828 217.7448233 14.9485321 217.73448181 C17.22255029 217.73182757 19.49658364 217.73503803 21.77058411 217.74440002 C24.95747678 217.75464338 28.14326684 217.73895548 31.33007812 217.71679688 C32.25507614 217.7248938 33.18007416 217.73299072 34.13310242 217.74133301 C46.06723308 217.58883843 56.44903917 212.59748054 65.16796875 204.63671875 C74.46312914 195.01155267 76.45242178 184.25379341 76.25390625 171.47265625 C75.84762427 159.99142849 70.38030082 150.68683606 62.16015625 142.83203125 C53.01565821 135.77963239 42.9179961 132.91873885 31.61035156 132.84863281 C30.69065582 132.8353746 29.77096008 132.82211639 28.82339478 132.80845642 C25.79765852 132.76753911 22.77199364 132.74067852 19.74609375 132.71484375 C17.63010051 132.69102614 15.51411334 132.66666455 13.39813232 132.64178467 C8.96663216 132.59194071 4.53513341 132.54914324 0.10351562 132.51123047 C-5.55311665 132.46221268 -11.20936108 132.39506626 -16.8657341 132.32248306 C-21.23591638 132.26855311 -25.60615694 132.22470022 -29.97647858 132.18376923 C-32.06073641 132.16299197 -34.14496547 132.13906401 -36.22914886 132.11182404 C-54.61665361 131.88060089 -70.4008233 132.57098536 -84.95703125 145.19921875 Z " fill="#000000" transform="translate(253.95703125,92.80078125)"/>
<path d="M0 0 C3.35809305 2.71990342 5.36533835 5.31476506 6.7265625 9.3984375 C7.84792774 24.03133477 7.84792774 24.03133477 2.7265625 30.3984375 C-3.38314031 35.91207174 -8.133246 37.44310247 -16.2734375 37.3984375 C-22.51603402 36.48963662 -25.90292321 33.17122103 -29.828125 28.43359375 C-33.9458977 22.63532462 -33.99922311 17.38986593 -33.2734375 10.3984375 C-31.53724807 4.73243009 -27.10181456 0.60374489 -22.2734375 -2.6015625 C-14.25932561 -6.01498053 -7.04495963 -4.85568931 0 0 Z " fill="#010101" transform="translate(299.2734375,251.6015625)"/>
<path d="M0 0 C4.0258556 4.2292898 6.10073481 9.68760949 6.56640625 15.46875 C6.24906828 22.20900842 3.41744911 28.01543552 -1.53125 32.54296875 C-7.85402317 36.19711086 -13.43852421 37.4152297 -20.53125 35.54296875 C-26.63388778 33.38909659 -30.35515144 29.0856275 -33.67578125 23.6796875 C-35.70279157 18.61678957 -35.51259413 12.29073231 -33.69140625 7.19140625 C-30.29905435 1.27477903 -25.10389211 -3.21437312 -18.65625 -5.45703125 C-11.81251823 -5.45703125 -5.43758712 -4.3731538 0 0 Z " fill="#010101" transform="translate(215.53125,252.45703125)"/>
<path d="M0 0 C0.99 0 1.98 0 3 0 C3.1959375 0.60585938 3.391875 1.21171875 3.59375 1.8359375 C7.74272449 13.46021947 14.87997923 21.54844235 26 27 C32.56652983 29.72536749 38.41816894 30.43818335 45.48583984 30.40405273 C46.49360977 30.41091599 47.5013797 30.41777924 48.53968811 30.42485046 C51.84691755 30.44304237 55.15366911 30.43929144 58.4609375 30.43359375 C60.77584994 30.43815943 63.09076103 30.44346616 65.40567017 30.44947815 C70.24901854 30.45839454 75.09220189 30.45600308 79.93554688 30.44604492 C86.12123485 30.4345619 92.30635139 30.45476468 98.49196434 30.48396206 C103.27057472 30.50236937 108.04904934 30.50202245 112.82768631 30.49632454 C115.10729397 30.49617186 117.38691114 30.50217208 119.66648483 30.51461601 C122.86313753 30.5296083 126.05874941 30.51878773 129.25537109 30.50170898 C130.64758125 30.51621094 130.64758125 30.51621094 132.06791687 30.53100586 C143.78046168 30.40094417 154.35103463 25.64116584 162.75 17.5625 C164.87524362 15.35495765 166.66316313 13.14301231 168.3125 10.5625 C168.869375 9.716875 169.42625 8.87125 170 8 C170.66 8 171.32 8 172 8 C170.50138653 13.3700316 168.24650663 16.83372575 164.25 20.6875 C162.77011494 21.93929598 162.77011494 21.93929598 163 24 C155.31590656 28.3200894 147.51582556 30.81205489 139 33 C138.0441622 33.26822476 138.0441622 33.26822476 137.06901455 33.54186821 C134.91003096 34.01992141 133.00350415 34.12582656 130.79420471 34.12698364 C129.54729355 34.13121338 129.54729355 34.13121338 128.27519226 34.13552856 C127.37170547 34.13350433 126.46821869 34.1314801 125.53735352 34.12939453 C124.10011932 34.13202301 124.10011932 34.13202301 122.6338501 34.13470459 C119.46551707 34.13910692 116.29723985 34.13619054 113.12890625 34.1328125 C110.92699676 34.13348606 108.72508734 34.13445652 106.5231781 34.13571167 C101.90729057 34.1371865 97.29142239 34.13504117 92.67553711 34.13037109 C86.75947559 34.12467729 80.84345948 34.12795198 74.92739964 34.13394356 C70.37981321 34.13755781 65.83223755 34.13640654 61.2846508 34.13381577 C59.10336235 34.13314872 56.92207291 34.13396717 54.7407856 34.13629532 C51.69117778 34.1388356 48.64164337 34.1349616 45.59204102 34.12939453 C44.23984718 34.13243088 44.23984718 34.13243088 42.8603363 34.13552856 C38.77566942 34.12171952 34.98392506 34.03117419 31 33 C31 32.34 31 31.68 31 31 C30.154375 30.896875 29.30875 30.79375 28.4375 30.6875 C24.58557299 29.9171146 21.55924969 28.63725486 18 27 C18 26.34 18 25.68 18 25 C17.401875 24.896875 16.80375 24.79375 16.1875 24.6875 C13.68741714 23.90175967 12.62464918 23.03081147 11 21 C11 20.34 11 19.68 11 19 C10.34 19 9.68 19 9 19 C7.29825776 16.51829256 6.04397649 14.11123464 4.9375 11.3125 C4.11696579 8.8572058 4.11696579 8.8572058 2 7 C0.45473667 4.33871316 0 3.15084005 0 0 Z " fill="#080809" transform="translate(156,279)"/>
<path d="M0 0 C3.03062376 -0.31273804 5.85860241 -0.43007123 8.89331055 -0.41992188 C10.27675156 -0.43262619 10.27675156 -0.43262619 11.68814087 -0.44558716 C14.75447202 -0.46908565 17.82030411 -0.4699752 20.88671875 -0.46875 C23.02269186 -0.47585131 25.15866306 -0.48355026 27.29463196 -0.49182129 C31.78640014 -0.50530089 36.27799259 -0.5068226 40.76977539 -0.50097656 C46.49018083 -0.4951217 52.20972539 -0.52548 57.92996502 -0.56609344 C62.35104308 -0.5921355 66.77191957 -0.59483214 71.19306374 -0.59120178 C73.29912261 -0.59288221 75.40519191 -0.60241947 77.51117516 -0.62034607 C90.03839734 -0.71512274 100.38898832 0.0562672 112 5 C112.94546188 5.37386841 113.89092377 5.74773682 114.86503601 6.13293457 C118.97726064 7.77885109 122.23821664 9.39767387 125 13 C125 13.66 125 14.32 125 15 C121.68574159 14.38597445 119.68293368 13.19461895 117 11.1875 C104.29983237 2.69683927 91.26003677 3.3962062 76.515625 3.390625 C74.24589875 3.37562488 71.97618334 3.35889392 69.70648193 3.34051514 C63.76854926 3.29703543 57.83076379 3.27688554 51.8927002 3.26177979 C45.81900396 3.24213863 39.74546509 3.20017664 33.671875 3.16015625 C21.78129877 3.08506414 9.89075812 3.03464573 -2 3 C-1.34 2.01 -0.68 1.02 0 0 Z " fill="#080808" transform="translate(195,223)"/>
<path d="M0 0 C0.65625 1.77734375 0.65625 1.77734375 1 4 C-1.86370681 9.36945026 -6.32630099 12.14137446 -12 14 C-12.66386719 14.07605469 -13.32773437 14.15210938 -14.01171875 14.23046875 C-16.32414409 14.53438751 -17.93859535 14.88675683 -20 16 C-21.80760717 18.53246217 -23.10051363 21.14417107 -24.4609375 23.94140625 C-37.1400728 49.13877411 -63.19063266 66.58548736 -89 76 C-90.06347656 76.39058594 -91.12695312 76.78117187 -92.22265625 77.18359375 C-100.94805329 80.24755456 -100.94805329 80.24755456 -106 80 C-104.37427213 76.74854427 -100.88704041 76.28853739 -97.625 75.125 C-96.89909668 74.85888916 -96.17319336 74.59277832 -95.42529297 74.31860352 C-92.23945861 73.15361319 -89.04522929 72.01584145 -85.84375 70.89453125 C-74.56294481 67.37871181 -74.56294481 67.37871181 -66 60 C-64.00428677 59.32060826 -62.00405227 58.65438441 -60 58 C-58.96466002 57.03663552 -57.96756552 56.03141503 -57 55 C-55.77960939 53.90678979 -54.54973443 52.82411022 -53.3125 51.75 C-52.25289063 50.821875 -52.25289063 50.821875 -51.171875 49.875 C-49.80088601 48.69141238 -48.41693434 47.52252891 -47.015625 46.375 C-38.27897182 39.10610455 -30.90215767 29.69775746 -25 20 C-25 19.34 -25 18.68 -25 18 C-24.34 18 -23.68 18 -23 18 C-22.97421875 17.39027344 -22.9484375 16.78054688 -22.921875 16.15234375 C-22 14 -22 14 -19.015625 12.69140625 C-17.77296875 12.31886719 -16.5303125 11.94632812 -15.25 11.5625 C-8.03362147 9.39607674 -4.28721755 6.09236178 0 0 Z " fill="#131313" transform="translate(383,295)"/>
<path d="M0 0 C5.39601617 5.81109433 5.34455727 10.86305592 5.28125 18.5390625 C4.80319487 24.42179647 2.83974428 27.33974297 -1.5625 31.3125 C-7.57969732 35.47825199 -12.88730247 36.74430952 -20.25390625 35.671875 C-26.71020104 33.70087307 -30.69569845 28.68994467 -34.17578125 23.1171875 C-35.25105204 20.3551175 -35.30130567 18.02153408 -35.3125 15.0625 C-35.32925781 14.04285156 -35.34601563 13.02320313 -35.36328125 11.97265625 C-34.95494192 8.63129895 -33.91007169 6.73659348 -32 4 C-31.34 4.33 -30.68 4.66 -30 5 C-30.495 6.2375 -30.495 6.2375 -31 7.5 C-32.86690064 14.03415223 -32.29083964 19.07776945 -30.046875 25.3359375 C-28.68130256 27.50658623 -27.33500707 28.00051358 -25 29 C-24.40960938 29.35320312 -23.81921875 29.70640625 -23.2109375 30.0703125 C-17.75628299 33.20383743 -13.20805802 33.45797149 -7 33 C-6.67 32.01 -6.34 31.02 -6 30 C-5.030625 29.4225 -4.06125 28.845 -3.0625 28.25 C0.82342148 25.39503728 1.21682497 23.69905019 2 19 C2.36439533 13.26077352 1.96597271 8.42982938 0 3 C-2.33333333 1.58333333 -2.33333333 1.58333333 -5 1 C-5.61875 0.484375 -6.2375 -0.03125 -6.875 -0.5625 C-11.00478705 -3.35617947 -16.14584628 -3.14709557 -21 -3 C-21 -2.34 -21 -1.68 -21 -1 C-23.97 0.32 -26.94 1.64 -30 3 C-27.56336125 -1.8732775 -24.83368059 -4.0043825 -19.6875 -5.8125 C-11.88388644 -6.35693816 -6.14325761 -4.97576069 0 0 Z " fill="#0D0D0D" transform="translate(301,253)"/>
<path d="M0 0 C-2.33810541 3.50715811 -3.45127355 3.7708646 -7.3125 5.1875 C-17.63661938 9.30227507 -28.82998018 15.51084122 -36.5859375 23.66796875 C-38 25 -38 25 -40 25 C-40.28875 25.61875 -40.5775 26.2375 -40.875 26.875 C-42.46406122 29.87656008 -44.15876045 31.1058403 -47 33 C-47.33 33.99 -47.66 34.98 -48 36 C-48.66 36 -49.32 36 -50 36 C-50.33 37.32 -50.66 38.64 -51 40 C-51.66 40 -52.32 40 -53 40 C-53.4021875 40.9590625 -53.4021875 40.9590625 -53.8125 41.9375 C-55 44 -55 44 -58 45 C-56.74275131 36.45869145 -46.41812642 27.37152547 -40 22 C-39.34 22 -38.68 22 -38 22 C-38 21.34 -38 20.68 -38 20 C-35.9933677 18.35931888 -33.99487338 16.85754587 -31.875 15.375 C-31.24988525 14.93349609 -30.62477051 14.49199219 -29.98071289 14.03710938 C-9.03773376 -0.51644193 -9.03773376 -0.51644193 0 0 Z " fill="#0D0D0D" transform="translate(191,168)"/>
<path d="M0 0 C0.66 0 1.32 0 2 0 C0.50138653 5.3700316 -1.75349337 8.83372575 -5.75 12.6875 C-7.22988506 13.93929598 -7.22988506 13.93929598 -7 16 C-24.22908381 25.68639735 -40.06785908 25.51157425 -59.375 25.25 C-61.96092366 25.22990383 -64.54686241 25.21165858 -67.1328125 25.1953125 C-73.42220799 25.15156645 -79.71103243 25.0849015 -86 25 C-86 24.67 -86 24.34 -86 24 C-85.40246414 23.99413376 -84.80492828 23.98826752 -84.18928528 23.98222351 C-77.90983003 23.91775792 -71.63086241 23.83320888 -65.35180664 23.73754883 C-63.01560946 23.704513 -60.67933656 23.67641635 -58.34301758 23.65356445 C-30.79367685 23.60805572 -30.79367685 23.60805572 -7.5625 10 C-5.32928309 7.62520901 -3.38885364 5.23946499 -1.625 2.5 C-1.08875 1.675 -0.5525 0.85 0 0 Z " fill="#151516" transform="translate(326,287)"/>
<path d="M0 0 C4.27985927 0.98765983 7.04030915 2.69808325 10.375 5.4375 C14.43751747 8.74821033 18.01057949 10.45781548 23 12 C23 12.66 23 13.32 23 14 C23.9075 14.2475 24.815 14.495 25.75 14.75 C32.4897082 16.68150174 39.22403291 18.75560096 45.625 21.625 C49.38572493 23.15714719 52.96441421 23.8387666 56.9609375 24.47265625 C57.63382813 24.64667969 58.30671875 24.82070313 59 25 C59.495 25.99 59.495 25.99 60 27 C53.38732513 27.36737083 48.22758988 26.16464259 42 24 C41.08009277 23.68458252 40.16018555 23.36916504 39.21240234 23.04418945 C27.4795938 18.90218026 16.89235273 13.4425907 6.5 6.625 C5.51894287 5.98147583 5.51894287 5.98147583 4.51806641 5.32495117 C2.97175053 4.27358226 1.47942483 3.14357839 0 2 C0 1.34 0 0.68 0 0 Z " fill="#161616" transform="translate(157,349)"/>
<path d="M0 0 C-0.33 0.99 -0.66 1.98 -1 3 C-10.96889351 4.75898081 -20.58375079 5.31644069 -30.68017578 5.26074219 C-33.02532017 5.24988275 -35.36972034 5.26077958 -37.71484375 5.2734375 C-39.22656417 5.27211788 -40.73828413 5.2695596 -42.25 5.265625 C-43.2860437 5.27169769 -43.2860437 5.27169769 -44.34301758 5.27789307 C-48.59252658 5.23699723 -52.04602554 4.54567247 -56 3 C-56 2.67 -56 2.34 -56 2 C-54.49771851 2.01571045 -54.49771851 2.01571045 -52.96508789 2.03173828 C-49.16108948 2.0686164 -45.3571059 2.09114034 -41.55297852 2.10986328 C-39.92306847 2.11976961 -38.29317542 2.1332984 -36.66333008 2.15087891 C-26.42331645 2.25836902 -16.49386823 1.81585144 -6.34155273 0.43310547 C-3 0 -3 0 0 0 Z " fill="#111111" transform="translate(276,374)"/>
<path d="M0 0 C4.09329778 4.40816684 5.14793267 7.61948772 5.1875 13.5625 C5.20167969 14.53316406 5.21585937 15.50382812 5.23046875 16.50390625 C5 19 5 19 3 21 C2.86722656 20.11957031 2.73445313 19.23914063 2.59765625 18.33203125 C2.42105469 17.17058594 2.24445313 16.00914062 2.0625 14.8125 C1.88847656 13.66394531 1.71445312 12.51539063 1.53515625 11.33203125 C1.35855469 10.23246094 1.18195313 9.13289063 1 8 C0.86078125 7.05769531 0.7215625 6.11539062 0.578125 5.14453125 C0.38734375 4.43683594 0.1965625 3.72914063 0 3 C-2.32854463 1.80161791 -2.32854463 1.80161791 -5 1 C-5.61875 0.484375 -6.2375 -0.03125 -6.875 -0.5625 C-11.00478705 -3.35617947 -16.14584628 -3.14709557 -21 -3 C-21 -2.34 -21 -1.68 -21 -1 C-23.97 0.32 -26.94 1.64 -30 3 C-27.56336125 -1.8732775 -24.83368059 -4.0043825 -19.6875 -5.8125 C-11.88388644 -6.35693816 -6.14325761 -4.97576069 0 0 Z " fill="#131313" transform="translate(301,253)"/>
<path d="M0 0 C2.61796602 3.46247119 3 4.55899888 3 9 C2.34 9 1.68 9 1 9 C0.78085938 8.46890625 0.56171875 7.9378125 0.3359375 7.390625 C-1.92096041 2.36306381 -3.81505289 -0.59956152 -9 -3 C-14.12627719 -4.09501174 -18.39290566 -4.86707588 -23 -2 C-23.66 -1.34 -24.32 -0.68 -25 0 C-25.99 0.33 -26.98 0.66 -28 1 C-32.10077068 5.90092106 -33.79434018 9.75249004 -35 16 C-35.33 16 -35.66 16 -36 16 C-36.51899357 10.18727204 -35.97822599 6.7162481 -32.62109375 1.89453125 C-29.12050932 -2.19651321 -25.22446533 -5.22627293 -20.125 -7 C-12.36142671 -7 -5.69251588 -5.50276535 0 0 Z " fill="#101010" transform="translate(217,254)"/>
<path d="M0 0 C39.10116301 -1.44530884 39.10116301 -1.44530884 52.5625 9.25 C55 12 55 12 55 14 C51.72964907 13.39088807 49.81205005 12.2585314 47.1875 10.25 C32.67526981 0.58294457 16.83092028 1.09353568 0 1 C0 0.67 0 0.34 0 0 Z " fill="#131313" transform="translate(265,224)"/>
<path d="M0 0 C-2.33810541 3.50715811 -3.45127355 3.7708646 -7.3125 5.1875 C-15.19446357 8.31556516 -22.53379416 12.541792 -29.25 17.7421875 C-31 19 -31 19 -33 19 C-33 18.01 -33 17.02 -33 16 C-31.39868164 14.62133789 -31.39868164 14.62133789 -29.16015625 13.22265625 C-28.34353516 12.70896484 -27.52691406 12.19527344 -26.68554688 11.66601562 C-25.81994141 11.13685547 -24.95433594 10.60769531 -24.0625 10.0625 C-22.81629883 9.27456055 -22.81629883 9.27456055 -21.54492188 8.47070312 C-6.56042365 -0.84650628 -6.56042365 -0.84650628 0 0 Z " fill="#101011" transform="translate(191,168)"/>
<path d="M0 0 C2 0 2 0 3.3671875 1.14453125 C13.20691682 12.02941316 12.48801986 24.15921448 12 38 C11.34 38 10.68 38 10 38 C9.96261719 36.88882813 9.92523438 35.77765625 9.88671875 34.6328125 C9.40453582 22.8266365 8.38468298 13.59226879 1.20703125 3.8125 C0 2 0 2 0 0 Z " fill="#131313" transform="translate(320,239)"/>
<path d="M0 0 C0.66 0 1.32 0 2 0 C2.05395478 1.62463842 2.09277195 3.24978541 2.125 4.875 C2.14820313 5.77992188 2.17140625 6.68484375 2.1953125 7.6171875 C2 10 2 10 0 12 C-2.52759148 12.55811558 -5.01116362 13.02626486 -7.5625 13.4375 C-13.6124084 14.48173262 -19.23329799 15.83748675 -25 18 C-24 15 -24 15 -21.41015625 13.6484375 C-14.47342055 11.0097259 -8.42301365 9.33237375 -1 9 C-0.67 6.03 -0.34 3.06 0 0 Z " fill="#141414" transform="translate(238,134)"/>
<path d="M0 0 C0.66 0.33 1.32 0.66 2 1 C-3.2697085 13.97941064 -3.2697085 13.97941064 -7.15234375 16.26953125 C-9.44769974 16.70117113 -11.67080018 16.84935524 -14 17 C-15.70224773 17.4933677 -17.39138046 18.03473015 -19.0625 18.625 C-20.19365234 19.01558594 -20.19365234 19.01558594 -21.34765625 19.4140625 C-21.89292969 19.60742188 -22.43820313 19.80078125 -23 20 C-21.24183783 16.16831026 -19.89092865 14.82128575 -16 13 C-14.5216274 12.80633864 -13.04236951 12.61936949 -11.5625 12.4375 C-8.29514756 11.826576 -7.25185433 11.30997456 -5.12109375 8.6875 C-3.63563825 6.16759476 -2.29467092 3.62170861 -1 1 C-0.67 0.67 -0.34 0.34 0 0 Z " fill="#131314" transform="translate(131,214)"/>
<path d="M0 0 C2 0.66666667 4 1.33333333 6 2 C6.73476562 2.24105469 7.46953125 2.48210937 8.2265625 2.73046875 C9.78150121 3.24271444 11.33364075 3.763538 12.8828125 4.29296875 C14.55160114 4.85025795 16.24178758 5.34347316 17.9375 5.8125 C20 7 20 7 21.125 9.6875 C21.41375 10.780625 21.7025 11.87375 22 13 C22.94564584 15.35938638 23.97608792 17.67292709 25 20 C21.74905801 18.95505436 20.43126714 17.40864509 18.75 14.5625 C17 11 17 11 17 8 C16.41992188 7.96261719 15.83984375 7.92523438 15.2421875 7.88671875 C10.2352542 7.46534317 6.29492444 6.82836488 2 4 C0.625 1.8125 0.625 1.8125 0 0 Z " fill="#0F0F0F" transform="translate(108,302)"/>
<path d="M0 0 C0.99 0 1.98 0 3 0 C3.1959375 0.60585938 3.391875 1.21171875 3.59375 1.8359375 C6.89722818 11.09137205 12.24429469 19.18436208 21 24 C20.67 25.32 20.34 26.64 20 28 C19.34 27.67 18.68 27.34 18 27 C18 26.34 18 25.68 18 25 C17.401875 24.896875 16.80375 24.79375 16.1875 24.6875 C13.68741714 23.90175967 12.62464918 23.03081147 11 21 C11 20.34 11 19.68 11 19 C10.34 19 9.68 19 9 19 C7.29825776 16.51829256 6.04397649 14.11123464 4.9375 11.3125 C4.11696579 8.8572058 4.11696579 8.8572058 2 7 C0.45473667 4.33871316 0 3.15084005 0 0 Z " fill="#0E0E0E" transform="translate(156,279)"/>
<path d="M0 0 C2.38006962 1.58671308 4.14366088 2.87846958 6 5 C6 5.66 6 6.32 6 7 C6.99 7.33 7.98 7.66 9 8 C9.28875 8.969375 9.5775 9.93875 9.875 10.9375 C10.68861556 14.21128486 10.68861556 14.21128486 13.625 15.375 C14.40875 15.58125 15.1925 15.7875 16 16 C16 16.66 16 17.32 16 18 C16.99 18 17.98 18 19 18 C20.32 20.31 21.64 22.62 23 25 C18.30021137 23.56850475 15.39968273 20.82848493 12.0625 17.375 C11.53688477 16.83883057 11.01126953 16.30266113 10.46972656 15.75024414 C0 4.92189861 0 4.92189861 0 0 Z " fill="#0F0F0F" transform="translate(133,323)"/>
<path d="M0 0 C0.99 0.33 1.98 0.66 3 1 C1.25 4.875 1.25 4.875 -1 6 C-2.38329562 12.4479425 -2.10099506 17.828327 0 24 C-0.33 24.66 -0.66 25.32 -1 26 C-1.66 26 -2.32 26 -3 26 C-6.2459733 18.29081342 -6.94771157 12.72939568 -3.94921875 4.796875 C-2.89675969 2.80456566 -1.66095802 1.50742408 0 0 Z " fill="#09090A" transform="translate(229,96)"/>
<path d="M0 0 C0.33 0 0.66 0 1 0 C1.1986449 4.4787443 1.38189278 8.95799493 1.5625 13.4375 C1.61857422 14.69755859 1.67464844 15.95761719 1.73242188 17.25585938 C1.99564511 23.97682588 1.97812006 30.34153823 1 37 C0.34 36.67 -0.32 36.34 -1 36 C-1.02465098 31.03377651 -1.04283649 26.06758834 -1.05493164 21.10131836 C-1.0599719 19.41055684 -1.06680405 17.71979971 -1.07543945 16.02905273 C-1.08751857 13.60399293 -1.09323123 11.17899056 -1.09765625 8.75390625 C-1.10281754 7.99348526 -1.10797882 7.23306427 -1.11329651 6.44960022 C-1.11349238 4.6326743 -1.06197277 2.81586873 -1 1 C-0.67 0.67 -0.34 0.34 0 0 Z " fill="#0C0C0C" transform="translate(102,253)"/>
<path d="M0 0 C-0.89138672 0.29390625 -0.89138672 0.29390625 -1.80078125 0.59375 C-11.19882561 3.98464626 -19.28766893 9.59328985 -26 17 C-25.46884894 12.48521602 -23.63379708 9.65333143 -21 6 C-20.01 6.33 -19.02 6.66 -18 7 C-17.67 6.34 -17.34 5.68 -17 5 C-14.9375 4.375 -14.9375 4.375 -13 4 C-13 3.34 -13 2.68 -13 2 C-11.5882217 1.46605821 -10.17029756 0.94834896 -8.75 0.4375 C-7.96109375 0.14746094 -7.1721875 -0.14257812 -6.359375 -0.44140625 C-3.80896548 -1.04522837 -2.44677771 -0.8473932 0 0 Z " fill="#0C0C0C" transform="translate(190,227)"/>
<path d="M0 0 C8.30735337 0.3404653 15.15755546 1.74661899 21 8 C20.67 8.99 20.34 9.98 20 11 C19.34 10.401875 18.68 9.80375 18 9.1875 C13.12323506 5.63152557 7.91167721 4.04323715 2 3 C1.34 2.67 0.68 2.34 0 2 C0 1.34 0 0.68 0 0 Z " fill="#0E0E0E" transform="translate(361,226)"/>
<path d="M0 0 C4.46812212 0.60653241 8.36424582 1.73931655 12.5625 3.375 C14.20412109 4.00535156 14.20412109 4.00535156 15.87890625 4.6484375 C18.78451347 5.90668543 21.40166996 7.19036232 24 9 C24 9.66 24 10.32 24 11 C16.88081813 8.73011593 9.6958114 6.3479057 3 3 C3 2.34 3 1.68 3 1 C2.01 0.67 1.02 0.34 0 0 Z " fill="#151515" transform="translate(289,165)"/>
<path d="M0 0 C8.32108227 -0.46228235 16.06587233 1.14611063 23 6 C22.67 6.66 22.34 7.32 22 8 C21.47792969 7.81824219 20.95585937 7.63648438 20.41796875 7.44921875 C15.09161429 5.63023605 9.74721585 4.10584698 4.28515625 2.74609375 C2 2 2 2 0 0 Z " fill="#0D0D0D" transform="translate(252,144)"/>
<path d="M0 0 C0.65625 1.77734375 0.65625 1.77734375 1 4 C-1.88306716 9.40575093 -6.31902919 12.21154623 -12 14 C-13.32 14 -14.64 14 -16 14 C-16 13.34 -16 12.68 -16 12 C-14.783125 11.608125 -13.56625 11.21625 -12.3125 10.8125 C-6.66910078 8.69871796 -3.41463365 4.85237414 0 0 Z " fill="#0D0D0D" transform="translate(383,295)"/>
<path d="M0 0 C0.66 0 1.32 0 2 0 C2 4.95 2 9.9 2 15 C3.65 15 5.3 15 7 15 C6.01 16.485 6.01 16.485 5 18 C2 18 2 18 0.328125 16.3828125 C-1.35493767 13.36320006 -1.33447622 11.31318212 -1.25 7.875 C-1.23453125 6.82054687 -1.2190625 5.76609375 -1.203125 4.6796875 C-1 2 -1 2 0 0 Z " fill="#070709" transform="translate(249,128)"/>
<path d="M0 0 C3.80476895 2.70338846 5.60283427 4.55214211 7 9 C7.265625 11.82421875 7.265625 11.82421875 7.25 14.6875 C7.25515625 15.64011719 7.2603125 16.59273438 7.265625 17.57421875 C7 20 7 20 5 22 C4.89042969 21.16597656 4.78085937 20.33195312 4.66796875 19.47265625 C3.70695808 12.65182443 2.40686272 6.4547682 0 0 Z " fill="#1E1E1F" transform="translate(299,252)"/>
<path d="M0 0 C-0.33 0.99 -0.66 1.98 -1 3 C-9.91 3.99 -9.91 3.99 -19 5 C-19.33 4.01 -19.66 3.02 -20 2 C-17.2294096 1.66453392 -14.45856036 1.33154158 -11.6875 1 C-10.90181641 0.90460938 -10.11613281 0.80921875 -9.30664062 0.7109375 C-8.54931641 0.62070312 -7.79199219 0.53046875 -7.01171875 0.4375 C-6.31522217 0.35371094 -5.61872559 0.26992188 -4.90112305 0.18359375 C-3 0 -3 0 0 0 Z " fill="#0B0B0B" transform="translate(276,374)"/>
<path d="M0 0 C2.9375 0.375 2.9375 0.375 6 1 C6.33 1.66 6.66 2.32 7 3 C10.08142868 4.10348459 13.00234962 4.10523224 16.25 4.0625 C17.14203125 4.05347656 18.0340625 4.04445313 18.953125 4.03515625 C19.62859375 4.02355469 20.3040625 4.01195312 21 4 C21 4.66 21 5.32 21 6 C14.276053 7.17402249 9.17638007 7.17130902 3 4 C0.9375 1.8125 0.9375 1.8125 0 0 Z " fill="#0D0D0D" transform="translate(187,282)"/>
<path d="M0 0 C-3.31087949 3.76428019 -7.24690847 4.80132193 -12 6 C-15.0625 6.1875 -15.0625 6.1875 -17 6 C-15.43419334 2.86838668 -12.82184478 2.54395566 -9.625 1.3125 C-8.46226562 0.85488281 -7.29953125 0.39726562 -6.1015625 -0.07421875 C-3 -1 -3 -1 0 0 Z " fill="#111111" transform="translate(294,369)"/>
<path d="M0 0 C0 0.66 0 1.32 0 2 C-1.39077301 2.82113177 -2.78788893 3.63152495 -4.1875 4.4375 C-4.96480469 4.88996094 -5.74210937 5.34242188 -6.54296875 5.80859375 C-9.04931977 7.02391499 -11.25790365 7.57626575 -14 8 C-12.5404114 4.1519937 -10.66100886 2.78793456 -7 1 C-4.57631853 0.37998846 -2.49506572 0 0 0 Z " fill="#0B0B0D" transform="translate(122,226)"/>
<path d="M0 0 C-2.23563473 3.3534521 -3.29405873 3.81616408 -6.9375 5.25 C-7.81277344 5.60578125 -8.68804687 5.9615625 -9.58984375 6.328125 C-12 7 -12 7 -15 6 C-11.31946413 1.45345569 -5.73670284 -0.52151844 0 0 Z " fill="#171717" transform="translate(191,168)"/>
<path d="M0 0 C0.99 0 1.98 0 3 0 C2.74537391 5.21983494 0.88742925 7.80651897 -2.4296875 11.58203125 C-4 13 -4 13 -7 14 C-6.75 12.1875 -6.75 12.1875 -6 10 C-5.360625 9.566875 -4.72125 9.13375 -4.0625 8.6875 C-1.10959589 6.27148755 -0.82209353 3.63091309 0 0 Z " fill="#171717" transform="translate(303,272)"/>
<path d="M0 0 C5.67853635 1.41963409 9.53174216 4.39363961 14 8 C13.34 8.66 12.68 9.32 12 10 C9.99426318 8.71656721 7.99563881 7.4239631 6 6.125 C5.42765625 5.76019531 4.8553125 5.39539063 4.265625 5.01953125 C2.80818084 4.06525233 1.39962775 3.03722413 0 2 C0 1.34 0 0.68 0 0 Z " fill="#121212" transform="translate(157,349)"/>
<path d="M0 0 C0.66 0.99 1.32 1.98 2 3 C1.38125 3.2475 0.7625 3.495 0.125 3.75 C-2.37818306 5.22246063 -2.83045281 6.41028837 -4 9 C-4.99 9.495 -4.99 9.495 -6 10 C-7.13350534 12.01669827 -7.13350534 12.01669827 -8 14 C-8.75 12.375 -8.75 12.375 -9 10 C-6.65855818 5.67733819 -3.96762024 2.86550351 0 0 Z M2 1 C2.66 1 3.32 1 4 1 C3.67 1.66 3.34 2.32 3 3 C2.67 2.34 2.34 1.68 2 1 Z " fill="#070707" transform="translate(212,150)"/>
<path d="M0 0 C2.70556641 -0.34057617 2.70556641 -0.34057617 6.1015625 -0.29296875 C7.31328125 -0.28330078 8.525 -0.27363281 9.7734375 -0.26367188 C11.04445312 -0.23853516 12.31546875 -0.21339844 13.625 -0.1875 C14.90375 -0.17396484 16.1825 -0.16042969 17.5 -0.14648438 C20.66708282 -0.11103196 23.83333541 -0.06161441 27 0 C27 0.33 27 0.66 27 1 C19.41 1.33 11.82 1.66 4 2 C4 2.33 4 2.66 4 3 C2.02 3 0.04 3 -2 3 C-1.34 2.01 -0.68 1.02 0 0 Z " fill="#080808" transform="translate(195,223)"/>
<path d="M0 0 C0.66 0.33 1.32 0.66 2 1 C1.690625 1.825 1.38125 2.65 1.0625 3.5 C0.22164194 6.26988536 -0.21922223 8.47919709 -0.5 11.3125 C-0.665 12.529375 -0.83 13.74625 -1 15 C-1.99 15.495 -1.99 15.495 -3 16 C-3.55353075 4.29384966 -3.55353075 4.29384966 0 0 Z " fill="#1C1C1C" transform="translate(269,257)"/>
<path d="M0 0 C0.66 0 1.32 0 2 0 C2.05395478 1.62463842 2.09277195 3.24978541 2.125 4.875 C2.14820313 5.77992188 2.17140625 6.68484375 2.1953125 7.6171875 C2 10 2 10 0 12 C-0.99 12 -1.98 12 -3 12 C-3 11.01 -3 10.02 -3 9 C-2.34 9 -1.68 9 -1 9 C-0.67 6.03 -0.34 3.06 0 0 Z " fill="#0C0C0C" transform="translate(238,134)"/>
<path d="M0 0 C0.33 0.99 0.66 1.98 1 3 C-3.38512875 6.31558515 -6.37458159 7.54996653 -12 8 C-9.69716746 5.45868642 -7.32686207 3.92889705 -4.3125 2.3125 C-3.50425781 1.87550781 -2.69601562 1.43851562 -1.86328125 0.98828125 C-1.24839844 0.66214844 -0.63351562 0.33601563 0 0 Z " fill="#1D1D1D" transform="translate(314,301)"/>
<path d="M0 0 C3.91841827 1.30613942 6.32640809 2.83129848 9 6 C9 6.66 9 7.32 9 8 C5.84669446 7.39305845 3.81111133 6.3583335 1.25 4.4375 C0.63640625 3.98246094 0.0228125 3.52742187 -0.609375 3.05859375 C-1.06828125 2.70925781 -1.5271875 2.35992187 -2 2 C-1.34 1.34 -0.68 0.68 0 0 Z " fill="#0D0D0D" transform="translate(311,230)"/>
<path d="M0 0 C5.36757261 0.46272178 9.30500109 1.13719579 14 4 C14.33 4.66 14.66 5.32 15 6 C9.55432314 4.97137215 4.88182883 3.75385216 0 1 C0 0.67 0 0.34 0 0 Z " fill="#1F1F1F" transform="translate(182,365)"/>
<path d="M0 0 C-3.9050849 3.55007718 -6.97734643 4.81819916 -12 6 C-12.33 5.01 -12.66 4.02 -13 3 C-11.21189234 2.30329584 -9.41937948 1.61788811 -7.625 0.9375 C-6.62726563 0.55464844 -5.62953125 0.17179688 -4.6015625 -0.22265625 C-2 -1 -2 -1 0 0 Z " fill="#0A0A0A" transform="translate(202,164)"/>
<path d="M0 0 C0 0.66 0 1.32 0 2 C-6.5 5 -6.5 5 -11 5 C-11 4.34 -11 3.68 -11 3 C-9.73160474 2.49384702 -8.46016898 1.99530901 -7.1875 1.5 C-6.12595703 1.08234375 -6.12595703 1.08234375 -5.04296875 0.65625 C-3 0 -3 0 0 0 Z " fill="#1B1B1B" transform="translate(378,304)"/>
<path d="M0 0 C0.66 0 1.32 0 2 0 C1.5206753 4.31392226 0.2542015 6.16569547 -3 9 C-3.99 8.67 -4.98 8.34 -6 8 C-5.04956626 6.66102417 -4.08940853 5.32894573 -3.125 4 C-2.59132812 3.2575 -2.05765625 2.515 -1.5078125 1.75 C-1.01023438 1.1725 -0.51265625 0.595 0 0 Z " fill="#0C0C0C" transform="translate(217,276)"/>
<path d="M0 0 C8.57142857 -0.28571429 8.57142857 -0.28571429 12 2 C12 2.33 12 2.66 12 3 C4.61538462 3.36923077 4.61538462 3.36923077 1.5 1.5 C1.005 1.005 0.51 0.51 0 0 Z " fill="#1B1B1B" transform="translate(252,144)"/>
<path d="M0 0 C0.66 0.33 1.32 0.66 2 1 C1.8125 2.8125 1.8125 2.8125 1 5 C-1.4375 6.8125 -1.4375 6.8125 -4 8 C-4.66 7.67 -5.32 7.34 -6 7 C-6 6.34 -6 5.68 -6 5 C-4.04072937 3.2856382 -2.04119788 1.61594832 0 0 Z " fill="#0C0C0C" transform="translate(336,341)"/>
<path d="M0 0 C4.38889325 0.66498383 7.9811485 2.18757677 12 4 C12 4.33 12 4.66 12 5 C9.03 4.67 6.06 4.34 3 4 C2.67 3.01 2.34 2.02 2 1 C1.34 0.67 0.68 0.34 0 0 Z " fill="#181818" transform="translate(175,304)"/>
<path d="M0 0 C3.35111834 2.23407889 4.81553956 3.26215824 5.8125 7.25 C5.874375 8.1575 5.93625 9.065 6 10 C5.01 9.67 4.02 9.34 3 9 C2.05078125 6.93359375 2.05078125 6.93359375 1.3125 4.4375 C1.06113281 3.61121094 0.80976563 2.78492188 0.55078125 1.93359375 C0.36902344 1.29550781 0.18726563 0.65742188 0 0 Z " fill="#252526" transform="translate(299,252)"/>
<path d="M0 0 C2.76276177 0.52268466 5.3260876 1.10869587 8 2 C8.33 3.65 8.66 5.3 9 7 C7.4972763 6.02501855 5.99788037 5.04490611 4.5 4.0625 C3.6646875 3.51722656 2.829375 2.97195312 1.96875 2.41015625 C1.3190625 1.94480469 0.669375 1.47945312 0 1 C0 0.67 0 0.34 0 0 Z " fill="#1A1A1A" transform="translate(291,249)"/>
<path d="M0 0 C3 1 3 1 4.75 3.4375 C5.36875 4.7059375 5.36875 4.7059375 6 6 C5.67 6.66 5.34 7.32 5 8 C3.0625 7.375 3.0625 7.375 1 6 C0.25 2.875 0.25 2.875 0 0 Z " fill="#0C0C0C" transform="translate(356,216)"/>
<path d="M0 0 C0.80566406 0.07863281 1.61132812 0.15726562 2.44140625 0.23828125 C3.42947266 0.46064453 3.42947266 0.46064453 4.4375 0.6875 C4.7675 1.3475 5.0975 2.0075 5.4375 2.6875 C-3.13392857 2.97321429 -3.13392857 2.97321429 -6.5625 0.6875 C-4.07849398 -0.55450301 -2.74042364 -0.29471651 0 0 Z " fill="#0F0F0F" transform="translate(211.5625,373.3125)"/>
<path d="M0 0 C3.25543229 0.34879632 4.01873107 1.02133261 6.25 3.5625 C6.8275 4.366875 7.405 5.17125 8 6 C7.67 6.66 7.34 7.32 7 8 C1.125 3.375 1.125 3.375 0 0 Z " fill="#0B0B0B" transform="translate(337,193)"/>
<path d="M0 0 C0.66 0.33 1.32 0.66 2 1 C2 2.32 2 3.64 2 5 C0.68 5.33 -0.64 5.66 -2 6 C-1.125 1.125 -1.125 1.125 0 0 Z M-4 6 C-3.34 6.33 -2.68 6.66 -2 7 C-2.99 7 -3.98 7 -5 7 C-4.67 6.67 -4.34 6.34 -4 6 Z " fill="#0E0E0E" transform="translate(317,298)"/>
<path d="M0 0 C0.66 0.33 1.32 0.66 2 1 C-0.6598561 4.44216672 -3.90288286 4.99504674 -8 6 C-7 3 -7 3 -3.5625 1.25 C-2.386875 0.8375 -1.21125 0.425 0 0 Z " fill="#0E0E0E" transform="translate(221,146)"/>
<path d="M0 0 C2.02045442 0.60183749 4.02111039 1.27306096 6 2 C6.33 2.66 6.66 3.32 7 4 C4.69 3.67 2.38 3.34 0 3 C0 2.01 0 1.02 0 0 Z " fill="#141414" transform="translate(114,305)"/>
<path d="M0 0 C0.66 0 1.32 0 2 0 C3.7143618 1.95927063 5.38405168 3.95880212 7 6 C4.625 5.8125 4.625 5.8125 2 5 C0.6875 2.4375 0.6875 2.4375 0 0 Z " fill="#0E0E0E" transform="translate(320,239)"/>
</svg>
