<?xml version="1.0" standalone="no"?>
<!DOCTYPE svg PUBLIC "-//W3C//DTD SVG 20010904//EN"
 "http://www.w3.org/TR/2001/REC-SVG-20010904/DTD/svg10.dtd">
<svg version="1.0" xmlns="http://www.w3.org/2000/svg"
 width="500.000000pt" height="500.000000pt" viewBox="0 0 500.000000 500.000000"
 preserveAspectRatio="xMidYMid meet">

<g transform="translate(0.000000,500.000000) scale(0.100000,-0.100000)"
fill="#000000" stroke="none">
<path d="M1302 3816 c-56 -57 -102 -111 -102 -122 0 -27 201 -224 229 -224 16
0 51 26 105 80 l82 80 454 0 c250 0 461 0 468 0 6 0 12 -4 12 -9 0 -5 -155
-404 -345 -887 -190 -483 -345 -887 -343 -899 3 -17 97 -56 588 -246 322 -125
596 -236 610 -247 14 -11 40 -55 58 -100 40 -96 57 -122 81 -122 19 0 118 39
213 84 73 34 79 54 45 138 -46 117 -89 197 -107 203 -19 6 -88 -19 -171 -61
-34 -17 -60 -24 -76 -19 -14 3 -230 86 -481 184 -252 98 -474 184 -494 190
-20 7 -41 18 -48 26 -8 10 22 96 130 371 77 198 144 362 149 367 11 11 114
-120 114 -147 0 -13 -42 -129 -93 -257 -113 -284 -121 -307 -112 -313 14 -8
185 23 197 36 7 7 130 312 274 677 l261 665 -40 50 c-21 28 -52 66 -67 84
l-28 34 -127 -324 c-70 -177 -138 -349 -150 -380 -13 -32 -25 -58 -28 -58 -14
2 -110 138 -110 157 0 11 63 181 140 376 77 195 140 363 140 373 0 32 -97 158
-133 172 -25 9 -131 11 -482 6 -329 -4 -458 -3 -480 6 -16 6 -64 45 -106 86
-53 51 -84 74 -101 74 -17 0 -52 -29 -126 -104z"/>
<path d="M2992 2793 c-66 -170 -168 -427 -225 -573 -58 -146 -102 -266 -98
-268 13 -4 194 27 202 35 4 5 38 85 74 178 37 94 70 174 75 179 8 8 75 -58 97
-98 20 -35 15 -97 -12 -148 -14 -26 -25 -54 -25 -63 0 -19 46 -20 138 -3 l65
12 41 89 41 88 58 -70 c48 -60 62 -71 88 -71 53 0 169 22 179 35 17 20 70 157
70 179 -1 21 -614 796 -636 803 -6 2 -65 -135 -132 -304z m376 -286 l183 -232
-28 -7 c-15 -4 -60 -10 -98 -14 l-70 -6 -123 152 c-67 84 -122 159 -122 169 0
21 60 171 69 171 3 -1 88 -105 189 -233z"/>
</g>
</svg>
