<?xml version="1.0" standalone="no"?>
<!DOCTYPE svg PUBLIC "-//W3C//DTD SVG 20010904//EN"
 "http://www.w3.org/TR/2001/REC-SVG-20010904/DTD/svg10.dtd">
<svg version="1.0" xmlns="http://www.w3.org/2000/svg"
 width="500.000000pt" height="500.000000pt" viewBox="0 0 500.000000 500.000000"
 preserveAspectRatio="xMidYMid meet">

<g transform="translate(0.000000,500.000000) scale(0.100000,-0.100000)"
fill="#000000" stroke="none">
<path d="M808 4821 c-77 -31 -118 -61 -163 -123 -87 -118 -80 48 -80 -1798 l0
-1636 35 -58 c19 -32 63 -84 97 -117 65 -61 259 -181 376 -233 37 -16 67 -35
67 -41 0 -6 21 -21 48 -34 26 -13 126 -69 222 -125 96 -57 252 -147 345 -201
94 -53 245 -142 336 -196 217 -129 278 -157 369 -168 131 -17 174 -2 399 133
86 51 229 134 317 184 89 50 210 121 270 158 59 36 169 100 243 141 75 42 186
106 246 142 61 37 165 98 233 135 68 38 129 77 135 87 7 10 16 19 22 19 18 1
75 86 98 147 22 58 22 59 25 893 1 459 -1 1197 -5 1640 l-8 805 -34 64 c-38
69 -107 133 -188 172 l-48 24 -1655 2 c-1586 2 -1657 1 -1702 -16z m3289 -186
c57 -17 93 -52 127 -125 l21 -45 0 -1565 c0 -1446 -1 -1567 -17 -1596 -30 -55
-75 -88 -275 -204 -109 -62 -308 -177 -443 -255 -135 -78 -348 -201 -475 -275
-362 -210 -457 -262 -497 -267 -72 -10 -122 6 -235 74 -59 36 -164 98 -233
138 -69 40 -260 151 -425 247 -597 348 -682 397 -739 424 -61 29 -93 63 -125
134 -20 45 -21 59 -21 1588 0 1085 3 1556 11 1587 18 71 70 106 219 144 59 15
198 16 1560 13 1283 -2 1502 -5 1547 -17z"/>
<path d="M1092 4588 c5 -15 93 -21 493 -34 l260 -9 -307 -5 c-212 -3 -311 -9
-319 -16 -16 -17 90 -23 626 -38 434 -13 441 -13 199 -15 -393 -2 -677 -12
-664 -25 11 -11 251 -23 545 -27 l190 -3 -195 -6 c-107 -4 -249 -8 -315 -9
-104 -1 -117 -3 -105 -15 12 -12 67 -17 260 -22 135 -5 232 -11 215 -15 -16
-4 54 -7 158 -8 117 -1 187 -5 187 -11 0 -5 -12 -10 -27 -10 -14 0 -24 -2 -21
-5 3 -3 63 -10 134 -15 109 -7 88 -8 -138 -5 -155 2 -268 -1 -268 -6 0 -5 -33
-9 -73 -9 -46 0 -80 -5 -92 -14 -16 -12 -7 -14 78 -20 53 -3 141 -9 195 -13
l97 -7 -70 -8 c-171 -20 -109 -34 209 -48 313 -14 337 -16 161 -19 -353 -7
-310 -36 71 -47 l269 -9 -209 -7 c-114 -4 -211 -9 -213 -12 -16 -15 70 -28
224 -33 176 -6 231 -23 75 -23 -77 0 -85 -2 -71 -15 11 -11 49 -17 144 -21
145 -7 204 -23 88 -24 -40 0 -73 -4 -73 -9 0 -11 55 -20 208 -31 69 -5 127
-12 130 -15 3 -3 -27 -5 -66 -5 -68 0 -88 -9 -60 -26 7 -5 71 -13 143 -20 71
-6 109 -12 83 -13 -26 0 -49 -5 -53 -10 -11 -19 34 -31 146 -38 63 -4 99 -9
82 -11 -18 -2 -33 -8 -33 -13 0 -16 42 -29 125 -37 68 -6 80 -10 77 -25 -4
-21 4 -24 91 -36 52 -7 74 -16 91 -34 12 -13 40 -27 62 -31 61 -11 74 -16 74
-31 0 -20 143 -61 235 -67 l50 -3 0 497 c0 488 0 497 -21 525 -11 15 -38 38
-60 50 l-39 23 -1493 0 c-1191 0 -1493 -3 -1490 -12z"/>
<path d="M817 3828 c-4 -326 -7 -1016 -7 -1533 0 -1063 -7 -978 82 -1045 26
-19 104 -66 173 -105 69 -38 183 -103 253 -144 70 -40 179 -103 242 -139 63
-36 201 -116 305 -177 105 -62 228 -134 275 -160 47 -26 134 -77 193 -113 93
-57 116 -66 165 -70 55 -4 60 -2 167 64 61 37 130 79 155 92 25 14 104 60 175
102 72 42 159 92 195 110 36 19 157 88 270 155 113 67 252 148 310 180 302
167 379 216 402 253 l23 37 0 470 0 470 -285 3 c-259 2 -286 1 -297 -15 -21
-28 -15 -33 35 -34 103 -3 110 -15 12 -22 -78 -6 -97 -11 -109 -27 -12 -18
-25 -20 -110 -20 -128 0 -201 -9 -201 -26 0 -8 23 -15 68 -19 68 -8 119 -24
75 -25 -40 0 -26 -28 17 -34 22 -3 57 -9 78 -12 35 -5 38 -8 34 -29 -4 -21 1
-24 34 -30 88 -14 97 -17 84 -25 -7 -4 -10 -15 -7 -22 6 -16 159 -38 262 -38
30 0 55 -4 55 -9 0 -5 -17 -7 -37 -4 -21 2 -364 8 -763 12 -603 5 -690 8 -515
14 233 9 255 11 255 31 0 18 -64 26 -234 27 -131 1 -136 2 -71 10 62 8 94 24
79 39 -3 3 -78 5 -167 5 -99 0 -163 4 -165 10 -4 12 -3 12 121 20 74 5 97 10
97 21 0 11 -19 14 -87 14 -49 0 -140 3 -203 7 l-115 7 113 11 c62 5 112 15
112 20 0 6 -68 13 -171 17 -94 4 -174 9 -177 12 -3 3 20 6 52 6 68 0 146 18
146 34 0 8 -123 11 -457 10 -267 -1 -441 2 -418 6 22 5 79 9 127 9 79 1 112
11 94 29 -4 3 -39 9 -79 12 -61 5 -67 8 -43 15 30 8 330 11 803 8 156 -1 290
0 298 3 26 10 12 27 -56 65 -35 19 -106 63 -157 97 -51 33 -101 64 -112 67
-11 4 -20 12 -20 20 0 7 -39 43 -86 80 -78 61 -84 68 -70 84 12 14 15 52 17
201 1 102 4 201 7 220 5 32 7 27 29 -55 21 -82 40 -115 66 -115 13 0 4 73 -29
235 -30 151 -27 196 15 266 43 68 55 120 42 180 -15 67 -45 124 -80 150 -27
20 -29 25 -24 73 4 44 2 54 -18 72 -38 34 -83 40 -110 13 -19 -19 -21 -29 -17
-100 4 -72 3 -80 -19 -100 -15 -15 -25 -39 -29 -71 -4 -26 -11 -48 -16 -48 -5
0 -25 12 -43 26 -19 14 -64 33 -100 41 -72 16 -115 46 -310 218 -55 48 -112
92 -127 97 -16 6 -28 16 -28 23 0 7 -12 21 -27 30 -88 57 -219 174 -267 239
-48 66 -106 116 -133 116 -6 0 -12 -222 -16 -592z m413 168 c69 -55 172 -141
230 -191 58 -49 125 -103 150 -118 25 -15 58 -46 73 -68 16 -21 39 -42 53 -45
22 -6 25 -11 23 -50 -3 -43 -4 -45 -43 -55 -23 -5 -50 -13 -61 -16 -24 -6 -65
-42 -65 -57 0 -20 -81 -146 -94 -146 -7 0 -21 9 -32 21 -15 17 -18 34 -16 102
3 101 -16 178 -68 273 -21 39 -44 93 -51 120 -28 110 -73 180 -138 214 -43 21
-111 93 -111 116 0 20 2 19 150 -100z m834 -501 c3 -8 1 -15 -4 -15 -6 0 -10
7 -10 15 0 8 2 15 4 15 2 0 6 -7 10 -15z m-264 -155 c30 -16 50 -129 50 -283
0 -120 -2 -136 -20 -152 -41 -38 -90 -1 -192 146 -35 50 -67 97 -73 104 -6 10
0 25 22 52 16 21 40 57 51 80 23 44 53 61 110 62 18 1 42 -3 52 -9z m187 -75
c17 -14 18 -36 13 -279 -3 -146 -8 -267 -12 -271 -9 -9 -45 15 -59 41 -8 17
-9 42 0 105 6 46 14 148 17 229 5 143 10 190 19 190 3 0 13 -7 22 -15z m117
-86 c-3 -5 -10 -7 -15 -3 -5 3 -7 10 -3 15 3 5 10 7 15 3 5 -3 7 -10 3 -15z
m-65 -231 c-1 -160 -4 -210 -10 -178 -5 25 -7 56 -5 70 2 14 5 94 5 178 1 83
3 152 6 152 3 0 5 -100 4 -222z m-387 -794 c41 -6 44 -9 40 -30 -5 -25 8 -29
82 -24 21 1 26 -2 20 -12 -6 -11 -5 -11 8 0 10 8 19 9 22 3 3 -5 0 -12 -6 -14
-10 -4 -10 -6 0 -6 7 -1 15 5 18 13 6 15 37 13 118 -9 19 -5 31 -4 36 5 12 19
97 23 123 5 12 -8 17 -15 12 -16 -6 0 -20 -2 -33 -3 -13 -2 -25 1 -28 5 -2 4
-15 -2 -29 -14 l-24 -22 57 -6 c31 -3 -24 -6 -123 -7 -186 -1 -214 12 -45 21
97 5 130 12 130 28 0 11 -17 12 -22 1 -1 -5 -25 -12 -53 -15 -29 -4 -44 -3
-37 2 10 6 8 10 -10 14 -35 10 -57 7 -33 -3 14 -6 3 -8 -34 -5 -30 2 -57 8
-60 13 -3 5 -19 9 -36 9 -69 -1 -134 7 -129 15 3 4 13 9 22 9 18 2 -15 9 -138
33 l-75 14 91 1 c50 1 111 -2 136 -5z m323 -64 c-3 -5 -11 -10 -16 -10 -6 0
-7 5 -4 10 3 6 11 10 16 10 6 0 7 -4 4 -10z m-272 -67 c-13 -2 -35 -2 -50 0
-16 2 -5 4 22 4 28 0 40 -2 28 -4z m540 0 c-13 -2 -35 -2 -50 0 -16 2 -5 4 22
4 28 0 40 -2 28 -4z m-981 -371 c-7 -5 -10 -16 -6 -25 5 -14 0 -17 -25 -17
l-31 0 0 -130 c0 -123 -1 -130 -20 -130 -19 0 -20 7 -20 130 l0 130 -25 0
c-18 0 -25 5 -25 18 0 29 8 32 89 32 43 0 70 -4 63 -8z m138 -17 c0 -22 -4
-25 -35 -25 -35 0 -35 0 -35 -45 0 -41 2 -45 25 -45 16 0 25 -6 25 -15 0 -9
-10 -15 -26 -15 -24 0 -25 -2 -22 -47 3 -46 4 -48 36 -51 24 -2 32 -8 32 -23
0 -17 -7 -19 -60 -19 l-60 0 -1 103 c-2 139 -4 161 -14 176 -5 10 -4 12 3 7 7
-4 12 -1 12 8 0 13 12 16 60 16 57 0 60 -1 60 -25z m310 -55 c9 -56 15 -70 30
-70 19 0 30 35 30 96 0 32 2 34 35 34 l35 0 0 -145 c0 -138 -1 -145 -20 -145
-18 0 -20 7 -20 75 0 67 -2 75 -19 75 -19 0 -31 -39 -31 -107 0 -50 -27 -43
-35 10 -12 78 -17 97 -26 97 -5 0 -9 -34 -9 -75 0 -68 -2 -75 -20 -75 -19 0
-20 7 -20 150 l0 150 29 0 c28 0 30 -2 41 -70z m304 7 c7 -43 13 -57 26 -57
13 0 18 12 23 56 6 61 10 69 26 59 7 -4 11 -59 11 -151 0 -121 -2 -144 -15
-144 -12 0 -15 14 -15 70 l0 70 -30 0 -30 0 0 -70 c0 -63 -2 -70 -20 -70 -19
0 -20 7 -20 143 0 79 3 147 7 151 16 15 29 -4 37 -57z m281 43 c0 -7 -6 -15
-12 -17 -8 -3 -13 4 -13 17 0 13 5 20 13 18 6 -3 12 -11 12 -18z m343 -133 c2
-142 2 -147 -18 -147 -18 0 -20 6 -20 70 0 68 -1 70 -25 70 -23 0 -25 -4 -26
-42 -1 -60 -12 -92 -32 -96 -15 -3 -17 10 -17 142 l0 146 25 0 c24 0 25 -3 25
-61 0 -52 2 -60 16 -55 9 3 20 6 25 6 5 0 9 27 9 61 0 52 2 60 18 57 15 -3 17
-20 20 -151z m110 26 l3 -122 27 -3 c19 -2 28 -9 30 -25 3 -22 0 -23 -52 -23
l-56 0 0 151 c0 150 0 150 23 147 21 -3 22 -7 25 -125z m199 119 c23 -15 33
-65 33 -173 0 -100 -2 -109 -19 -109 -23 0 -31 19 -31 71 0 39 -11 48 -37 31
-6 -4 -15 -31 -19 -60 -3 -28 -12 -52 -18 -52 -8 0 -10 39 -8 130 3 126 4 130
29 150 27 21 50 25 70 12z m419 -88 c15 -122 -24 -204 -97 -204 l-39 0 0 144
0 145 43 3 c59 4 84 -19 93 -88z m-1809 78 c7 -5 14 -57 19 -145 7 -136 7
-137 -15 -137 -19 0 -21 5 -21 60 0 41 -4 60 -12 60 -26 0 -36 -16 -43 -67 -4
-29 -11 -53 -17 -53 -16 0 -3 270 13 281 17 11 60 11 76 1z m703 -7 c0 -8 -4
-15 -10 -15 -6 0 -10 -42 -10 -105 0 -63 4 -105 10 -105 6 0 10 -11 10 -25 0
-23 -4 -25 -45 -25 -38 0 -45 3 -45 19 0 11 5 21 11 23 7 2 14 41 17 99 4 80
2 100 -13 122 l-17 27 46 0 c34 0 46 -4 46 -15z m164 9 c10 -4 16 -18 16 -40
0 -38 -17 -47 -22 -11 -2 16 -11 23 -30 25 l-28 3 0 -105 0 -106 30 0 c28 0
30 3 30 35 0 24 -5 35 -15 35 -8 0 -15 9 -15 20 0 15 7 20 26 20 25 0 26 -2
20 -37 -3 -21 -6 -52 -6 -70 0 -36 -22 -48 -70 -38 l-30 7 0 128 c0 114 2 129
18 133 27 7 59 8 76 1z m665 -47 c24 -50 25 -51 28 -22 6 57 13 75 28 75 13 0
15 -24 15 -146 0 -133 -1 -145 -17 -142 -11 2 -19 14 -21 28 -5 44 -34 111
-46 107 -6 -2 -12 -30 -14 -63 -2 -32 -7 -63 -13 -69 -5 -5 -9 46 -9 138 0
166 8 182 49 94z m441 38 c0 -10 -11 -15 -35 -15 -35 0 -35 0 -35 -44 0 -41 2
-45 28 -48 l27 -4 -28 -14 c-25 -12 -28 -18 -25 -59 3 -42 5 -46 31 -49 19 -2
27 -9 27 -23 0 -16 -7 -19 -50 -19 l-50 0 0 139 c0 154 -2 149 68 150 31 1 42
-3 42 -14z m150 -5 c22 -22 28 -88 9 -107 -15 -15 7 -109 27 -117 22 -8 18
-46 -6 -46 -25 0 -40 29 -40 79 0 37 -2 41 -25 41 -24 0 -25 -3 -25 -60 0 -47
-3 -60 -15 -60 -12 0 -15 18 -15 99 0 54 -3 119 -6 145 l-7 46 42 0 c28 0 47
-6 61 -20z m200 -9 c14 -27 13 -41 -4 -41 -8 0 -13 6 -12 13 1 14 -5 17 -34
17 -32 0 -25 -44 12 -79 26 -24 32 -38 36 -85 4 -45 1 -57 -12 -62 -9 -3 -13
-10 -10 -15 10 -16 -43 -9 -64 9 -24 20 -39 62 -22 62 6 0 18 -7 27 -16 9 -8
25 -14 37 -12 33 5 24 52 -18 99 -35 38 -45 75 -30 113 9 24 80 22 94 -3z"/>
<path d="M2877 1603 c-4 -3 -7 -26 -7 -50 0 -41 1 -43 30 -43 29 0 30 1 30 50
0 46 -2 50 -23 50 -13 0 -27 -3 -30 -7z"/>
<path d="M3267 1603 c-4 -3 -7 -51 -7 -105 0 -98 0 -98 25 -98 l25 0 0 105 c0
95 -2 105 -18 105 -10 0 -22 -3 -25 -7z"/>
<path d="M1498 1602 c-14 -3 -18 -14 -18 -48 0 -42 1 -44 30 -44 29 0 30 2 30
44 0 45 -10 56 -42 48z"/>
<path d="M3620 1560 c0 -33 3 -40 20 -40 17 0 20 7 20 40 0 33 -3 40 -20 40
-17 0 -20 -7 -20 -40z"/>
<path d="M4140 2910 c-14 -11 -68 -46 -120 -77 -52 -31 -135 -84 -185 -118
-143 -98 -171 -112 -402 -190 -328 -110 -513 -185 -513 -207 0 -17 29 -18 638
-16 l637 3 0 310 c0 338 0 339 -55 295z"/>
<path d="M2935 2270 c-6 -10 14 -14 138 -30 101 -13 244 -13 252 0 4 6 -21 10
-68 10 -53 0 -76 4 -80 13 -4 10 -34 14 -121 15 -64 0 -118 -4 -121 -8z"/>
<path d="M1837 2256 c-3 -8 -23 -17 -44 -19 -21 -3 12 -4 72 -2 73 1 122 7
145 18 35 15 34 15 -66 16 -80 1 -103 -2 -107 -13z"/>
<path d="M3097 2199 c5 -5 39 -14 74 -19 65 -10 219 -14 219 -6 0 2 3 11 6 20
5 14 -12 16 -152 16 -111 0 -155 -3 -147 -11z"/>
</g>
</svg>
